<svg xmlns="http://www.w3.org/2000/svg" viewBox="0 0 220.216 88.087">
  <defs>
    <style>
      .cls-1 {
        fill: #222;
      }

      .cls-2 {
        fill: #0a2f04;
      }

      .cls-3, .cls-5 {
        fill: #f0f0f0;
      }

      .cls-4, .cls-5 {
        stroke: none;
      }
    </style>
  </defs>
  <g id="Group_11" data-name="Group 11" transform="translate(-15063.082 319)">
    <g id="Path_5" data-name="Path 5" class="cls-1" transform="translate(15063.082 -319)">
      <path class="cls-4" d="M 43.943359375 43.943359375 L 0.09999892115592957 43.943359375 L 0.09999892115592957 0.09999892115592957 L 43.943359375 0.09999892115592957 L 43.943359375 43.943359375 Z"/>
      <path class="cls-5" d="M 0.2000007629394531 0.2000007629394531 L 0.2000007629394531 43.84335708618164 L 43.84335708618164 43.84335708618164 L 43.84335708618164 0.2000007629394531 L 0.2000007629394531 0.2000007629394531 M 0 0 L 44.04335784912109 0 L 44.04335784912109 44.04335784912109 L 0 44.04335784912109 L 0 0 Z"/>
    </g>
    <g id="Path_6" data-name="Path 6" class="cls-1" transform="translate(15107.126 -319)">
      <path class="cls-4" d="M 43.943359375 43.943359375 L 0.09999892115592957 43.943359375 L 0.09999892115592957 0.09999892115592957 L 43.943359375 0.09999892115592957 L 43.943359375 43.943359375 Z"/>
      <path class="cls-5" d="M 0.2000007629394531 0.2000007629394531 L 0.2000007629394531 43.84335708618164 L 43.84335708618164 43.84335708618164 L 43.84335708618164 0.2000007629394531 L 0.2000007629394531 0.2000007629394531 M 0 0 L 44.04335784912109 0 L 44.04335784912109 44.04335784912109 L 0 44.04335784912109 L 0 0 Z"/>
    </g>
    <g id="Path_7" data-name="Path 7" class="cls-1" transform="translate(15151.169 -319)">
      <path class="cls-4" d="M 43.943359375 43.943359375 L 0.09999892115592957 43.943359375 L 0.09999892115592957 0.09999892115592957 L 43.943359375 0.09999892115592957 L 43.943359375 43.943359375 Z"/>
      <path class="cls-5" d="M 0.2000007629394531 0.2000007629394531 L 0.2000007629394531 43.84335708618164 L 43.84335708618164 43.84335708618164 L 43.84335708618164 0.2000007629394531 L 0.2000007629394531 0.2000007629394531 M 0 0 L 44.04335784912109 0 L 44.04335784912109 44.04335784912109 L 0 44.04335784912109 L 0 0 Z"/>
    </g>
    <g id="Path_8" data-name="Path 8" class="cls-1" transform="translate(15195.212 -319)">
      <path class="cls-4" d="M 43.943359375 43.943359375 L 0.09999892115592957 43.943359375 L 0.09999892115592957 0.09999892115592957 L 43.943359375 0.09999892115592957 L 43.943359375 43.943359375 Z"/>
      <path class="cls-5" d="M 0.2000007629394531 0.2000007629394531 L 0.2000007629394531 43.84335708618164 L 43.84335708618164 43.84335708618164 L 43.84335708618164 0.2000007629394531 L 0.2000007629394531 0.2000007629394531 M 0 0 L 44.04335784912109 0 L 44.04335784912109 44.04335784912109 L 0 44.04335784912109 L 0 0 Z"/>
    </g>
    <g id="Path_9" data-name="Path 9" class="cls-1" transform="translate(15239.255 -319)">
      <path class="cls-4" d="M 43.943359375 43.943359375 L 0.09999892115592957 43.943359375 L 0.09999892115592957 0.09999892115592957 L 43.943359375 0.09999892115592957 L 43.943359375 43.943359375 Z"/>
      <path class="cls-5" d="M 0.2000007629394531 0.2000007629394531 L 0.2000007629394531 43.84335708618164 L 43.84335708618164 43.84335708618164 L 43.84335708618164 0.2000007629394531 L 0.2000007629394531 0.2000007629394531 M 0 0 L 44.04335784912109 0 L 44.04335784912109 44.04335784912109 L 0 44.04335784912109 L 0 0 Z"/>
    </g>
    <g id="Path_10" data-name="Path 10" class="cls-1" transform="translate(15063.082 -274.957)">
      <path class="cls-4" d="M 43.943359375 43.943359375 L 0.09999892115592957 43.943359375 L 0.09999892115592957 0.09999892115592957 L 43.943359375 0.09999892115592957 L 43.943359375 43.943359375 Z"/>
      <path class="cls-5" d="M 0.2000007629394531 0.2000007629394531 L 0.2000007629394531 43.84335708618164 L 43.84335708618164 43.84335708618164 L 43.84335708618164 0.2000007629394531 L 0.2000007629394531 0.2000007629394531 M 0 0 L 44.04335784912109 0 L 44.04335784912109 44.04335784912109 L 0 44.04335784912109 L 0 0 Z"/>
    </g>
    <g id="Path_11" data-name="Path 11" class="cls-1" transform="translate(15107.126 -274.957)">
      <path class="cls-4" d="M 43.943359375 43.943359375 L 0.09999892115592957 43.943359375 L 0.09999892115592957 0.09999892115592957 L 43.943359375 0.09999892115592957 L 43.943359375 43.943359375 Z"/>
      <path class="cls-5" d="M 0.2000007629394531 0.2000007629394531 L 0.2000007629394531 43.84335708618164 L 43.84335708618164 43.84335708618164 L 43.84335708618164 0.2000007629394531 L 0.2000007629394531 0.2000007629394531 M 0 0 L 44.04335784912109 0 L 44.04335784912109 44.04335784912109 L 0 44.04335784912109 L 0 0 Z"/>
    </g>
    <g id="Path_12" data-name="Path 12" class="cls-1" transform="translate(15151.169 -274.957)">
      <path class="cls-4" d="M 43.943359375 43.943359375 L 0.09999892115592957 43.943359375 L 0.09999892115592957 0.09999892115592957 L 43.943359375 0.09999892115592957 L 43.943359375 43.943359375 Z"/>
      <path class="cls-5" d="M 0.2000007629394531 0.2000007629394531 L 0.2000007629394531 43.84335708618164 L 43.84335708618164 43.84335708618164 L 43.84335708618164 0.2000007629394531 L 0.2000007629394531 0.2000007629394531 M 0 0 L 44.04335784912109 0 L 44.04335784912109 44.04335784912109 L 0 44.04335784912109 L 0 0 Z"/>
    </g>
    <g id="Path_13" data-name="Path 13" class="cls-1" transform="translate(15195.212 -274.957)">
      <path class="cls-4" d="M 43.943359375 43.943359375 L 0.09999892115592957 43.943359375 L 0.09999892115592957 0.09999892115592957 L 43.943359375 0.09999892115592957 L 43.943359375 43.943359375 Z"/>
      <path class="cls-5" d="M 0.2000007629394531 0.2000007629394531 L 0.2000007629394531 43.84335708618164 L 43.84335708618164 43.84335708618164 L 43.84335708618164 0.2000007629394531 L 0.2000007629394531 0.2000007629394531 M 0 0 L 44.04335784912109 0 L 44.04335784912109 44.04335784912109 L 0 44.04335784912109 L 0 0 Z"/>
    </g>
    <g id="Path_14" data-name="Path 14" class="cls-2" transform="translate(15239.255 -274.957)">
      <path class="cls-4" d="M 43.943359375 43.943359375 L 0.09999892115592957 43.943359375 L 0.09999892115592957 0.09999892115592957 L 43.943359375 0.09999892115592957 L 43.943359375 43.943359375 Z"/>
      <path class="cls-5" d="M 0.2000007629394531 0.2000007629394531 L 0.2000007629394531 43.84335708618164 L 43.84335708618164 43.84335708618164 L 43.84335708618164 0.2000007629394531 L 0.2000007629394531 0.2000007629394531 M 0 0 L 44.04335784912109 0 L 44.04335784912109 44.04335784912109 L 0 44.04335784912109 L 0 0 Z"/>
    </g>
    <path id="Path_15" data-name="Path 15" class="cls-3" d="M2.346-23.977H-2.839v-3.474a6.234,6.234,0,0,0-.166-1.891.714.714,0,0,0-.733-.376.766.766,0,0,0-.813.456,6.935,6.935,0,0,0-.172,1.971v9.263a6.464,6.464,0,0,0,.172,1.9.738.738,0,0,0,.776.443.729.729,0,0,0,.758-.443,7.217,7.217,0,0,0,.179-2.082v-2.5H2.346v.776a15.287,15.287,0,0,1-.437,4.385A4.482,4.482,0,0,1-.025-13.286a6.628,6.628,0,0,1-3.689.973,7.642,7.642,0,0,1-3.757-.825,4.013,4.013,0,0,1-1.958-2.285,15,15,0,0,1-.48-4.391V-25.64a25.906,25.906,0,0,1,.148-3.233,4.526,4.526,0,0,1,.881-2.075,4.911,4.911,0,0,1,2.032-1.57,7.342,7.342,0,0,1,2.987-.573,7.3,7.3,0,0,1,3.781.887,4.252,4.252,0,0,1,1.958,2.211,13.311,13.311,0,0,1,.468,4.12Z" transform="translate(15089.026 -275.921)"/>
    <path id="Path_16" data-name="Path 16" class="cls-3" d="M2.224-32.412V-12.47H-2.962v-8.376H-4.514v8.376H-9.7V-32.412h5.186v7.132h1.552v-7.132Z" transform="translate(15132.989 -276.183)"/>
    <path id="Path_17" data-name="Path 17" class="cls-3" d="M-6.67-31.621H1.766v3.894H-1.611v3.689H1.55v3.7h-3.16v4.278H2.1v3.894H-6.67Z" transform="translate(15176.069 -276.078)"/>
    <path id="Path_18" data-name="Path 18" class="cls-3" d="M1.931-28.587H-3.238v-1.586a3.112,3.112,0,0,0-.2-1.414.729.729,0,0,0-.661-.3.841.841,0,0,0-.76.41,2.376,2.376,0,0,0-.258,1.243,3.51,3.51,0,0,0,.291,1.613,4.22,4.22,0,0,0,1.573,1.309Q.463-25.111,1.428-23.7a8.3,8.3,0,0,1,.965,4.56,8,8,0,0,1-.535,3.371A4.194,4.194,0,0,1-.211-13.947a8.183,8.183,0,0,1-3.569.734,7.98,7.98,0,0,1-3.814-.846,4.149,4.149,0,0,1-2.069-2.155,11.046,11.046,0,0,1-.489-3.714v-1.4h5.169v2.6a3.428,3.428,0,0,0,.218,1.547.844.844,0,0,0,.773.344.906.906,0,0,0,.826-.436,2.489,2.489,0,0,0,.271-1.3,4.014,4.014,0,0,0-.516-2.472,16.433,16.433,0,0,0-2.6-1.943,25.618,25.618,0,0,1-2.749-2A4.67,4.67,0,0,1-9.88-26.7a7.562,7.562,0,0,1-.443-2.8,7.775,7.775,0,0,1,.628-3.6,4.225,4.225,0,0,1,2.029-1.778,8.093,8.093,0,0,1,3.384-.641,8.817,8.817,0,0,1,3.695.7,3.868,3.868,0,0,1,2.022,1.765,9.343,9.343,0,0,1,.5,3.615Z" transform="translate(15221.315 -274.168)"/>
    <path id="Path_19" data-name="Path 19" class="cls-3" d="M1.931-28.587H-3.238v-1.586a3.112,3.112,0,0,0-.2-1.414.729.729,0,0,0-.661-.3.841.841,0,0,0-.76.41,2.376,2.376,0,0,0-.258,1.243,3.51,3.51,0,0,0,.291,1.613,4.22,4.22,0,0,0,1.573,1.309Q.463-25.111,1.428-23.7a8.3,8.3,0,0,1,.965,4.56,8,8,0,0,1-.535,3.371A4.194,4.194,0,0,1-.211-13.947a8.183,8.183,0,0,1-3.569.734,7.98,7.98,0,0,1-3.814-.846,4.149,4.149,0,0,1-2.069-2.155,11.046,11.046,0,0,1-.489-3.714v-1.4h5.169v2.6a3.428,3.428,0,0,0,.218,1.547.844.844,0,0,0,.773.344.906.906,0,0,0,.826-.436,2.489,2.489,0,0,0,.271-1.3,4.014,4.014,0,0,0-.516-2.472,16.433,16.433,0,0,0-2.6-1.943,25.618,25.618,0,0,1-2.749-2A4.67,4.67,0,0,1-9.88-26.7a7.562,7.562,0,0,1-.443-2.8,7.775,7.775,0,0,1,.628-3.6,4.225,4.225,0,0,1,2.029-1.778,8.093,8.093,0,0,1,3.384-.641,8.817,8.817,0,0,1,3.695.7,3.868,3.868,0,0,1,2.022,1.765,9.343,9.343,0,0,1,.5,3.615Z" transform="translate(15265.359 -274.168)"/>
    <path id="Path_20" data-name="Path 20" class="cls-3" d="M2.346-23.977H-2.839v-3.474a6.234,6.234,0,0,0-.166-1.891.714.714,0,0,0-.733-.376.766.766,0,0,0-.813.456,6.935,6.935,0,0,0-.172,1.971v9.263a6.464,6.464,0,0,0,.172,1.9.738.738,0,0,0,.776.443.729.729,0,0,0,.758-.443,7.217,7.217,0,0,0,.179-2.082v-2.5H2.346v.776a15.287,15.287,0,0,1-.437,4.385A4.482,4.482,0,0,1-.025-13.286a6.628,6.628,0,0,1-3.689.973,7.642,7.642,0,0,1-3.757-.825,4.013,4.013,0,0,1-1.958-2.285,15,15,0,0,1-.48-4.391V-25.64a25.906,25.906,0,0,1,.148-3.233,4.526,4.526,0,0,1,.881-2.075,4.911,4.911,0,0,1,2.032-1.57,7.342,7.342,0,0,1,2.987-.573,7.3,7.3,0,0,1,3.781.887,4.252,4.252,0,0,1,1.958,2.211,13.311,13.311,0,0,1,.468,4.12Z" transform="translate(15089.026 -231.878)"/>
    <path id="Path_21" data-name="Path 21" class="cls-3" d="M-1-34.783v17.118H2.386v4.283H-6.563v-21.4Z" transform="translate(15131.985 -229.381)"/>
    <path id="Path_22" data-name="Path 22" class="cls-3" d="M2.266-33.2V-19.55a23.693,23.693,0,0,1-.151,3.262,4.427,4.427,0,0,1-.9,1.931,4.649,4.649,0,0,1-1.962,1.5,7.384,7.384,0,0,1-2.871.511,8.075,8.075,0,0,1-3.23-.606,4.862,4.862,0,0,1-2.095-1.577,4.369,4.369,0,0,1-.82-2.05q-.126-1.079-.126-4.536V-33.2h5.312v15.318a6.042,6.042,0,0,0,.145,1.71.569.569,0,0,0,.587.372.614.614,0,0,0,.65-.41,7.635,7.635,0,0,0,.145-1.937V-33.2Z" transform="translate(15177.104 -231.22)"/>
    <path id="Path_23" data-name="Path 23" class="cls-3" d="M-9.639-32.412h5.173a13.638,13.638,0,0,1,3.714.382,3.682,3.682,0,0,1,2.039,1.546,6.954,6.954,0,0,1,.776,3.751,4.039,4.039,0,0,1-.548,2.439A3.821,3.821,0,0,1-.648-23.235a3.838,3.838,0,0,1,2.439,1.349A5.2,5.2,0,0,1,2.432-19v1.848a7.335,7.335,0,0,1-.462,2.993A2.49,2.49,0,0,1,.5-12.827a15.107,15.107,0,0,1-4.139.357h-6ZM-4.454-29v4.434q.333-.012.517-.012.764,0,.973-.376A6.149,6.149,0,0,0-2.754-27.1a3.474,3.474,0,0,0-.172-1.312.827.827,0,0,0-.45-.474A4,4,0,0,0-4.454-29Zm0,7.538v5.58a2.213,2.213,0,0,0,1.4-.345,2.418,2.418,0,0,0,.3-1.515V-19.6a2.627,2.627,0,0,0-.271-1.552A2.43,2.43,0,0,0-4.454-21.461Z" transform="translate(15221.053 -232.139)"/>
  </g>
</svg>
